# xmcd
#
# Track frame offsets: 
#        150
#        13962
#        24392
#        36197
#        47450
#        58355
#        71017
#        85412
#        98075
#        110660
#        122710
#        136075
#        147317
#        159620
#        171207
#        182707
#        196000
#        205380
#        217005
#        230382
#        242415
#        253910
#        263567
#        271860
#        279425
#
# Disc length: 3812 seconds
#
# Revision: 3
# Processed by: cddbd v1.5.2PL0 Copyright (c) Steve Scherf et al.
# Submitted via: ExactAudioCopy v1.0b3
#
DISCID=6e0ee219
DTITLE=Franike Starr - Elevator Boogie (with Marty Robbins)
DYEAR=1900
DGENRE=Country
TTITLE0=Franike Starr - Elevator Boogie 
TTITLE1=Franike Starr - That's The Way The Big Ball Bounces 
TTITLE2=Franike Starr - Sky Writtin' Airplane 
TTITLE3=Franike Starr - I Don't Care What You Used To Be 
TTITLE4=Franike Starr - I Love You Too Much To Leave You 
TTITLE5=Franike Starr - I'm Paying The Price 
TTITLE6=Franike Starr - Cross My Heart (I'm Not Double Crossing You) 
TTITLE7=Franike Starr - There's A Vacancy 
TTITLE8=Franike Starr - Your Kind Wasn't Meant For Me 
TTITLE9=Franike Starr - My Heart Can't Stand Another Tear 
TTITLE10=Franike Starr - I Want Someone To Love 
TTITLE11=Franike Starr - You Broke Your Heart Breaking Mine 
TTITLE12=Franike Starr and Dot Allen - Your Daddy's Looped Again
TTITLE13=Franike Starr - My Woman Ain't Pretty (But She Don't Swear No
TTITLE13=ne)
TTITLE14=Franike Starr - Elevator Baby 
TTITLE15=Franike Starr - That Crazy Dream 
TTITLE16=Franike Starr - Between You, Me And The Gatepost 
TTITLE17=Franike Starr - The Great Fireball 
TTITLE18=Franike Starr - Little Joe Weatherly 
TTITLE19=Franike Starr - Tear Stained Bible 
TTITLE20=Franike Starr - John 3:16 
TTITLE21=MARTY ROBBINS - Our Love Is At An End
TTITLE22=MARTY ROBBINS - For A Lifetime (And Not Just A Little While)
TTITLE23=MARTY ROBBINS - I've Lost My Love And You
TTITLE24=MARTY ROBBINS - I Want Someone To Love
EXTD=
EXTT0=
EXTT1=
EXTT2=
EXTT3=
EXTT4=
EXTT5=
EXTT6=
EXTT7=
EXTT8=
EXTT9=
EXTT10=
EXTT11=
EXTT12=
EXTT13=
EXTT14=
EXTT15=
EXTT16=
EXTT17=
EXTT18=
EXTT19=
EXTT20=
EXTT21=
EXTT22=
EXTT23=
EXTT24=
PLAYORDER=
